<svg width="16" height="16" viewBox="0 0 16 16" fill="none" xmlns="http://www.w3.org/2000/svg">
<path fill-rule="evenodd" clip-rule="evenodd" d="M9.99896 4.53337C9.99896 5.34339 10.6556 6.00003 11.4656 6.00001C12.2756 5.99999 12.9323 5.34332 12.9323 4.5333C12.9323 3.72328 12.2756 3.06665 11.4656 3.06667C10.6556 3.06669 9.99896 3.72336 9.99896 4.53337ZM9.00986 3.90886C9.28801 2.81175 10.282 2.00003 11.4656 2C12.8647 1.99996 13.999 3.13415 13.999 4.53327C13.999 5.93239 12.8647 7.06664 11.4656 7.06667C11.0237 7.06668 10.6082 6.95354 10.2465 6.75463L6.75419 10.2469C6.88581 10.486 6.97994 10.7487 7.02864 11.027H8.97036C9.17848 9.8374 10.2165 8.93327 11.4656 8.93327C12.8647 8.93327 13.999 10.0675 13.999 11.4666C13.9991 12.8657 12.8649 13.9999 11.4658 13.9999C10.2831 13.9999 9.28962 13.1895 9.01057 12.0936H6.98849C6.70948 13.1895 5.71605 14 4.53333 14C3.13423 14 2 12.8658 2 11.4667C2 10.0676 3.13422 8.93342 4.53333 8.93341C5.10348 8.9334 5.62964 9.12174 6.05298 9.43959L9.43899 6.05367C9.20495 5.74218 9.04105 5.37498 8.97074 4.97553H7.02822C6.81906 6.16385 5.78162 7.06669 4.53333 7.06671C3.13423 7.06673 2 5.93257 2 4.53346C2 3.13435 3.13422 2.00015 4.53333 2.00014C5.71692 2.00012 6.71094 2.81178 6.9891 3.90886H9.00986ZM5.93218 4.97553H4.66615C4.37159 4.97553 4.13281 4.73675 4.13281 4.44219C4.13281 4.14764 4.37159 3.90886 4.66615 3.90886H5.86075C5.62618 3.41121 5.11999 3.0668 4.53333 3.0668C3.72331 3.06681 3.06667 3.72346 3.06667 4.53344C3.06667 5.34342 3.7233 6.00005 4.53333 6.00004C5.18928 6.00003 5.74464 5.56944 5.93218 4.97553ZM5.99462 11.3401C5.96416 11.4072 5.9472 11.4818 5.9472 11.5603C5.9472 11.6208 5.95728 11.679 5.97585 11.7332C5.85051 12.4159 5.25235 12.9333 4.53333 12.9333C3.7233 12.9333 3.06667 12.2767 3.06667 11.4667C3.06667 10.6567 3.72331 10.0001 4.53333 10.0001C5.30073 10.0001 5.93045 10.5894 5.99462 11.3401ZM10.1394 12.0936C10.3745 12.59 10.88 12.9333 11.4657 12.9333C12.2757 12.9333 12.9324 12.2766 12.9324 11.4666C12.9323 10.6566 12.2757 9.99994 11.4657 9.99994C10.8088 9.99994 10.2528 10.4317 10.066 11.027H11.3328C11.6274 11.027 11.8661 11.2657 11.8661 11.5603C11.8661 11.8548 11.6274 12.0936 11.3328 12.0936H10.1394Z" fill="#2F3338"/>
</svg>
