<svg width="16" height="16" viewBox="0 0 16 16" fill="none" xmlns="http://www.w3.org/2000/svg">
<path fill-rule="evenodd" clip-rule="evenodd" d="M4.1333 5.33322C4.1333 4.67048 4.67056 4.13322 5.3333 4.13322H12.8C13.4627 4.13322 14 4.67048 14 5.33322V12.7999C14 13.4626 13.4627 13.9999 12.8 13.9999H5.3333C4.67056 13.9999 4.1333 13.4626 4.1333 12.7999V5.33322ZM5.3333 5.19989C5.25966 5.19989 5.19997 5.25958 5.19997 5.33322V12.7999C5.19997 12.8735 5.25966 12.9332 5.3333 12.9332H12.8C12.8736 12.9332 12.9333 12.8735 12.9333 12.7999V5.33322C12.9333 5.25958 12.8736 5.19989 12.8 5.19989H5.3333Z" fill="#2F3338"/>
<path fill-rule="evenodd" clip-rule="evenodd" d="M2.00049 3.19976C2.00049 2.53701 2.53775 1.99976 3.20049 1.99976H12.1333C12.4279 1.99976 12.6666 2.23854 12.6666 2.53309C12.6666 2.82764 12.4279 3.06642 12.1333 3.06642H3.20049C3.12685 3.06642 3.06715 3.12612 3.06715 3.19976V12.1332C3.06715 12.4278 2.82837 12.6666 2.53382 12.6666C2.23927 12.6666 2.00049 12.4278 2.00049 12.1332V3.19976Z" fill="#2F3338"/>
</svg>
