<svg width="16" height="16" viewBox="0 0 16 16" fill="none" xmlns="http://www.w3.org/2000/svg">
<path fill-rule="evenodd" clip-rule="evenodd" d="M8.3836 10.7027C8.28305 10.8073 8.14423 10.8664 7.99915 10.8664C7.85408 10.8664 7.71526 10.8073 7.61471 10.7027L4.28138 7.23608C4.07722 7.02376 4.08384 6.68613 4.29616 6.48198C4.50849 6.27782 4.84611 6.28444 5.05027 6.49676L7.46582 9.00894V2.53309C7.46582 2.23854 7.7046 1.99976 7.99915 1.99976C8.29371 1.99976 8.53249 2.23854 8.53249 2.53309V9.00894L10.948 6.49676C11.1522 6.28444 11.4898 6.27782 11.7021 6.48198C11.9145 6.68613 11.9211 7.02376 11.7169 7.23608L8.3836 10.7027ZM2.4002 10.6668C2.40027 10.3723 2.16154 10.1334 1.86699 10.1334C1.57244 10.1333 1.3336 10.372 1.33353 10.6666L1.33301 12.7999C1.33297 12.9414 1.38915 13.077 1.48917 13.1771C1.58919 13.2771 1.72487 13.3334 1.86634 13.3334H14.1325C14.427 13.3334 14.6658 13.0946 14.6658 12.8V10.6667C14.6658 10.3721 14.427 10.1334 14.1325 10.1334C13.8379 10.1334 13.5992 10.3721 13.5992 10.6667V12.2667H2.3998L2.4002 10.6668Z" fill="#2F3338"/>
</svg>
