<svg width="16" height="16" viewBox="0 0 16 16" fill="none" xmlns="http://www.w3.org/2000/svg">
<path d="M1.33325 1.33325V0.833252C1.05711 0.833252 0.833252 1.05711 0.833252 1.33325H1.33325ZM14.6666 1.33325H15.1666C15.1666 1.05711 14.9427 0.833252 14.6666 0.833252V1.33325ZM14.6666 14.6666V15.1666C14.9427 15.1666 15.1666 14.9427 15.1666 14.6666H14.6666ZM1.33325 14.6666H0.833252C0.833252 14.9427 1.05711 15.1666 1.33325 15.1666V14.6666ZM1.33325 1.33325V1.83325H14.6666V1.33325V0.833252H1.33325V1.33325ZM14.6666 1.33325H14.1666V14.6666H14.6666H15.1666V1.33325H14.6666ZM14.6666 14.6666V14.1666H1.33325V14.6666V15.1666H14.6666V14.6666ZM1.33325 14.6666H1.83325V1.33325H1.33325H0.833252V14.6666H1.33325Z" fill="#2F3338"/>
<path d="M8 1.33325V14.6666" stroke="#2F3338" stroke-linecap="round"/>
<path d="M3.33325 5.33325H5.99992" stroke="#2F3338" stroke-linecap="round"/>
<path d="M3.33325 8H5.99992" stroke="#2F3338" stroke-linecap="round"/>
<path d="M3.33325 10.6665H5.99992" stroke="#2F3338" stroke-linecap="round"/>
<path d="M10 5.33325H12.6667" stroke="#2F3338" stroke-linecap="round"/>
<path d="M10 8H12.6667" stroke="#2F3338" stroke-linecap="round"/>
<path d="M10 10.6665H12.6667" stroke="#2F3338" stroke-linecap="round"/>
</svg>
