<svg width="24" height="24" viewBox="0 0 24 24" fill="none" xmlns="http://www.w3.org/2000/svg">
<g clip-path="url(#clip0_22971_25901)">
<path d="M8.37937 15.6621L3.7351 20.2711M10.3191 10.1301C10.0963 10.3527 9.81569 10.5088 9.50897 10.5807C9.20225 10.6526 8.88155 10.6376 8.58293 10.5372L6.97842 10.0104C6.6798 9.90999 6.35909 9.89492 6.05238 9.96685C5.74566 10.0388 5.46508 10.1948 5.2422 10.4175L4.78719 10.8725C4.6284 11.0313 4.5392 11.2466 4.5392 11.4712C4.5392 11.6957 4.6284 11.9111 4.78719 12.0699L11.9716 19.2542C12.1303 19.413 12.3457 19.5022 12.5702 19.5022C12.7948 19.5022 13.0102 19.413 13.1689 19.2542L13.624 18.7992C13.8466 18.5763 14.0027 18.2958 14.0746 17.989C14.1465 17.6823 14.1314 17.3616 14.0311 17.063L13.5042 15.4585C13.4039 15.1599 13.3888 14.8392 13.4607 14.5325C13.5326 14.2257 13.6887 13.9452 13.9113 13.7223L16.1624 11.4712C16.3212 11.3124 16.5366 11.2232 16.7611 11.2232C16.9857 11.2232 17.201 11.3124 17.3598 11.4712C17.6774 11.7887 18.1081 11.9672 18.5572 11.9672C19.0063 11.9672 19.437 11.7887 19.7546 11.4712C20.0722 11.1536 20.2506 10.7229 20.2506 10.2738C20.2506 9.82467 20.0722 9.39396 19.7546 9.07639L14.965 4.28681C14.6475 3.96924 14.2168 3.79084 13.7676 3.79084C13.3185 3.79084 12.8878 3.96924 12.5702 4.28681C12.2527 4.60438 12.0743 5.0351 12.0743 5.48421C12.0743 5.93332 12.2527 6.36403 12.5702 6.6816C12.729 6.84039 12.8182 7.05574 12.8182 7.2803C12.8182 7.50485 12.729 7.72021 12.5702 7.87899L10.3191 10.1301Z" stroke="#2F3338" stroke-linecap="round" stroke-linejoin="round"/>
</g>
<defs>
<clipPath id="clip0_22971_25901">
<rect width="24" height="24" fill="white"/>
</clipPath>
</defs>
</svg>
