<svg width="16" height="16" viewBox="0 0 16 16" fill="none" xmlns="http://www.w3.org/2000/svg">
<path fill-rule="evenodd" clip-rule="evenodd" d="M8.53348 3.14082C8.53348 2.879 8.2947 2.66675 8.00015 2.66675C7.7056 2.66675 7.46681 2.879 7.46681 3.14082V7.46673H3.14082C2.879 7.46673 2.66675 7.70551 2.66675 8.00006C2.66675 8.29462 2.879 8.5334 3.14082 8.5334H7.46681V12.8593C7.46681 13.1212 7.7056 13.3334 8.00015 13.3334C8.2947 13.3334 8.53348 13.1212 8.53348 12.8593V8.5334H12.8593C13.1212 8.5334 13.3334 8.29462 13.3334 8.00006C13.3334 7.70551 13.1212 7.46673 12.8593 7.46673H8.53348V3.14082Z" fill="#2F3338"/>
</svg>
