<svg width="16" height="16" viewBox="0 0 16 16" fill="none" xmlns="http://www.w3.org/2000/svg">
<path fill-rule="evenodd" clip-rule="evenodd" d="M2.79836 8.00007C2.79836 5.131 5.13807 2.80007 8.03056 2.80007C9.99514 2.80007 11.7064 3.87595 12.6011 5.4668H10.5333C10.2387 5.4668 9.99992 5.70558 9.99992 6.00013C9.99992 6.29468 10.2387 6.53346 10.5333 6.53346H13.8666C14.1611 6.53346 14.3999 6.29468 14.3999 6.00013V2.6668C14.3999 2.37225 14.1611 2.13346 13.8666 2.13346C13.572 2.13346 13.3333 2.37225 13.3333 2.6668V4.61663C12.2129 2.88217 10.2563 1.7334 8.03056 1.7334C4.55461 1.7334 1.73169 4.53627 1.73169 8.00007C1.73169 11.4638 4.55461 14.2667 8.03056 14.2667C11.1863 14.2667 13.8025 11.9574 14.259 8.93984C14.3031 8.6486 14.1027 8.37679 13.8115 8.33273C13.5202 8.28867 13.2484 8.48905 13.2044 8.78029C12.8262 11.2797 10.6553 13.2001 8.03056 13.2001C5.13807 13.2001 2.79836 10.8691 2.79836 8.00007Z" fill="#2F3338"/>
</svg>
