<svg width="16" height="16" viewBox="0 0 16 16" fill="none" xmlns="http://www.w3.org/2000/svg">
<path fill-rule="evenodd" clip-rule="evenodd" d="M2.66579 7.26676C2.66579 4.72625 4.72528 2.66676 7.26579 2.66676C9.8063 2.66676 11.8658 4.72625 11.8658 7.26676C11.8658 8.47549 11.3996 9.57534 10.6372 10.3963C10.5868 10.4213 10.5395 10.4549 10.4975 10.4969C10.4555 10.5389 10.4219 10.5863 10.3968 10.6367C9.57572 11.4 8.47526 11.8668 7.26579 11.8668C4.72528 11.8668 2.66579 9.80727 2.66579 7.26676ZM10.8788 11.6324C9.89805 12.445 8.63896 12.9334 7.26579 12.9334C4.13617 12.9334 1.59912 10.3964 1.59912 7.26676C1.59912 4.13715 4.13617 1.6001 7.26579 1.6001C10.3954 1.6001 12.9325 4.13715 12.9325 7.26676C12.9325 8.6391 12.4446 9.8975 11.6329 10.878L13.8443 13.0894C14.0526 13.2977 14.0526 13.6354 13.8443 13.8437C13.636 14.0519 13.2983 14.0519 13.0901 13.8437L10.8788 11.6324Z" fill="black"/>
</svg>
