<svg width="16" height="16" viewBox="0 0 16 16" fill="none" xmlns="http://www.w3.org/2000/svg">
<path d="M9.32881 14.6666L6.36584 14.6666L5.9577 12.8295C5.62506 12.6375 5.25469 12.4238 4.61029 12.0518L2.81473 12.617L1.33325 10.051L2.71992 8.77844C2.71992 8.37029 2.71992 7.62955 2.71992 7.22288L1.33325 5.94955L2.81473 3.38362L4.61029 3.94881C5.25469 3.57676 5.62506 3.36276 5.95844 3.17029L6.36584 1.33325L9.32881 1.33325L9.73695 3.17029C10.0695 3.36229 10.8102 3.78981 11.0844 3.94807L12.8799 3.38288L14.3614 5.94881L12.9747 7.2214C12.9747 7.62955 12.9747 8.37029 12.9747 8.77696L14.3614 10.0495L12.8799 12.6155L11.0844 12.0503C10.8102 12.2086 10.0695 12.6375 9.73695 12.8295L9.32881 14.6666Z" stroke="#2F3338" stroke-width="1.06667" stroke-linecap="round"/>
<path d="M7.84722 10.222C9.07452 10.222 10.0694 9.22711 10.0694 7.99981C10.0694 6.77251 9.07452 5.77759 7.84722 5.77759C6.61992 5.77759 5.625 6.77251 5.625 7.99981C5.625 9.22711 6.61992 10.222 7.84722 10.222Z" stroke="#2F3338" stroke-width="1.06667"/>
</svg>
