<svg width="16" height="16" viewBox="0 0 16 16" fill="none" xmlns="http://www.w3.org/2000/svg">
<path d="M2.66675 1.33325V0.833252C2.39061 0.833252 2.16675 1.05711 2.16675 1.33325H2.66675ZM13.3334 1.33325H13.8334C13.8334 1.05711 13.6096 0.833252 13.3334 0.833252V1.33325ZM13.3334 14.6666V15.1666C13.6096 15.1666 13.8334 14.9427 13.8334 14.6666H13.3334ZM2.66675 14.6666H2.16675C2.16675 14.9427 2.39061 15.1666 2.66675 15.1666V14.6666ZM2.66675 1.33325V1.83325H13.3334V1.33325V0.833252H2.66675V1.33325ZM13.3334 1.33325H12.8334V14.6666H13.3334H13.8334V1.33325H13.3334ZM13.3334 14.6666V14.1666H2.66675V14.6666V15.1666H13.3334V14.6666ZM2.66675 14.6666H3.16675V1.33325H2.66675H2.16675V14.6666H2.66675Z" fill="#2F3338"/>
<path d="M5.33325 5.33325H10.6666" stroke="#2F3338" stroke-linecap="round"/>
<path d="M5.33325 8H10.6666" stroke="#2F3338" stroke-linecap="round"/>
<path d="M5.33325 10.6665H7.99992" stroke="#2F3338" stroke-linecap="round"/>
</svg>
