<svg width="16" height="16" viewBox="0 0 16 16" fill="none" xmlns="http://www.w3.org/2000/svg">
<path d="M8.99927 1.33325C10.1038 1.33325 10.9993 2.22868 10.9993 3.33325V3.99927H12.4993L12.5012 3.96704L12.9856 3.99927H14.0002C14.1841 3.99944 14.3331 4.14941 14.3333 4.33325C14.3331 4.51709 14.1841 4.66608 14.0002 4.66626H13.4573L12.9573 12.1663C12.8696 13.4792 11.7781 14.5001 10.4622 14.5002H6.20435C4.88845 14.5001 3.79792 13.4792 3.71021 12.1663L3.21021 4.66626H2.66626C2.48242 4.66608 2.33343 4.51709 2.33325 4.33325C2.33343 4.14941 2.48242 3.99944 2.66626 3.99927H3.68188L4.16626 3.96704L4.16821 3.99927H5.66626V3.33325C5.66626 2.22879 6.56184 1.33343 7.66626 1.33325H8.99927ZM4.70825 12.0999C4.76094 12.8875 5.41492 13.5001 6.20435 13.5002H10.4622C11.2516 13.5001 11.9066 12.8875 11.9592 12.0999L12.4543 4.66626H4.21313L4.70825 12.0999ZM6.83325 6.66626C7.10929 6.66626 7.33308 6.89027 7.33325 7.16626V10.1663C7.33325 10.4424 7.10939 10.6663 6.83325 10.6663C6.55711 10.6663 6.33325 10.4424 6.33325 10.1663V7.16626C6.33343 6.89027 6.55722 6.66626 6.83325 6.66626ZM9.83325 6.66626C10.1093 6.66626 10.3331 6.89027 10.3333 7.16626V10.1663C10.3333 10.4424 10.1094 10.6663 9.83325 10.6663C9.55711 10.6663 9.33325 10.4424 9.33325 10.1663V7.16626C9.33343 6.89027 9.55722 6.66626 9.83325 6.66626ZM7.66626 2.33325C7.11412 2.33343 6.66626 2.78108 6.66626 3.33325V3.66626H9.99927V3.33325C9.99927 2.78097 9.55155 2.33325 8.99927 2.33325H7.66626Z" fill="#2F3338"/>
</svg>
